<svg xmlns="http://www.w3.org/2000/svg" viewBox="0 0 512 512">
  <rect width="512" height="512" rx="96" fill="#0f766e"/>
  <path d="M124 320c0-35 29-64 64-64h136V112h48v224c0 35-29 64-64 64s-64-29-64-64 29-64 64-64h16v-72H188v120c0 35-29 64-64 64s-64-29-64-64 29-64 64-64h16V128h48v128h-16c-27 0-48 21-48 48s21 48 48 48 48-21 48-48V176h184v128h-16c-27 0-48 21-48 48s21 48 48 48 48-21 48-48V112h-96v112H188V112h-48v144h-16c-35 0-64 29-64 64s29 64 64 64 64-29 64-64h-48c0 9-7 16-16 16s-16-7-16-16 7-16 16-16z" fill="#ffffff" opacity=".94"/>
</svg>
